<svg width="549" height="519" viewBox="0 0 549 519" fill="none" xmlns="http://www.w3.org/2000/svg">
<path d="M147.896 0.300499C200.891 -0.695776 259.858 63.8403 329.905 71.3956C399.754 79.3444 480.341 30.1415 516.65 45.3971C552.42 60.8752 543.912 140.812 545.452 213.478C547.136 286.708 558.869 352.667 521.077 370.152C483.483 387.244 396.562 355.468 344.931 357.149C293.102 359.222 276.706 395.317 228.044 437.881C178.844 480.666 97.1797 530.314 53.4414 516.256C9.50575 502.592 4.0342 425 1.72184 350.47C-0.787844 276.333 0.400013 205.036 24.2368 136.234C48.4145 67.6029 94.9002 1.29677 147.896 0.300499Z" fill="#E6D53C" fill-opacity="0.85"/>
</svg>
